<?xml version="1.0" encoding="UTF-8"?>
<svg version="1.1" xmlns="http://www.w3.org/2000/svg" width="800" height="800">
<path d="M0 0 C0.52577637 0.46792969 1.05155273 0.93585938 1.59326172 1.41796875 C11.60936586 10.37693945 21.40208323 19.65221368 30 30 C30.69198486 30.82927002 30.69198486 30.82927002 31.39794922 31.67529297 C39.01621674 40.83193299 46.34108964 50.11969239 53 60 C53.45165527 60.66741211 53.90331055 61.33482422 54.36865234 62.02246094 C102.94156452 134.52381837 119.81259782 224.5152109 103.71484375 309.99609375 C98.64246412 335.23489346 90.49585085 359.5270616 80 383 C79.65614258 383.78262207 79.31228516 384.56524414 78.95800781 385.37158203 C70.01983525 405.64478039 58.23356837 424.27430291 45 442 C44.61054199 442.52239258 44.22108398 443.04478516 43.81982422 443.58300781 C38.91033361 450.14328784 33.86933445 456.46559361 28.30078125 462.48828125 C26.39996897 464.56336155 24.55384716 466.66762549 22.71484375 468.796875 C19.04496935 473.00076349 15.19755968 476.9947468 11.25 480.9375 C10.5489917 481.63770264 9.8479834 482.33790527 9.12573242 483.05932617 C4.49688871 487.63404377 -0.21594291 491.87887004 -5.34375 495.890625 C-7.17887598 497.34793093 -8.96895174 498.86314667 -10.71875 500.421875 C-21.2929647 509.82736071 -33.13068369 517.34050107 -45 525 C-45.69222656 525.45068848 -46.38445312 525.90137695 -47.09765625 526.36572266 C-64.2005011 537.46847605 -83.23088061 545.86634707 -102.3125 552.9375 C-103.10696533 553.23213135 -103.90143066 553.5267627 -104.7199707 553.83032227 C-114.96290872 557.54229862 -124.62779744 558.79383786 -134.84375 554.203125 C-137.81008325 552.54799703 -139.83786056 550.60728579 -142 548 C-142.721875 547.195625 -143.44375 546.39125 -144.1875 545.5625 C-148.3199736 539.72003733 -148.29022493 533.91024792 -148.27124023 527.02587891 C-148.27908035 525.54155869 -148.27908035 525.54155869 -148.28707886 524.0272522 C-148.29730021 521.88294683 -148.303096 519.73861679 -148.30496025 517.59428787 C-148.30863665 514.18679628 -148.32540253 510.77959245 -148.34571838 507.37216187 C-148.40098031 497.68517447 -148.43166537 487.99814366 -148.45629883 478.31103516 C-148.47229296 472.37769908 -148.5026428 466.44456438 -148.54106331 460.51133347 C-148.55261841 458.26379939 -148.55864282 456.01622909 -148.55874443 453.76866531 C-148.56002679 432.93704847 -149.33068417 410.62213677 -164.45703125 394.44140625 C-164.90433594 394.00699219 -165.35164063 393.57257813 -165.8125 393.125 C-168.68446853 390.33508772 -168.95655357 388.58652686 -169.25 384.625 C-168.97926023 380.69927335 -168.44616236 379.03661534 -166 376 C-162.31248898 373.4020911 -159.27212685 372.4781939 -154.828125 371.859375 C-153.61866211 371.67979248 -152.40919922 371.50020996 -151.16308594 371.31518555 C-149.2261084 371.0354187 -149.2261084 371.0354187 -147.25 370.75 C-115.42063695 365.84399578 -84.1259221 356.4000071 -61 333 C-60.28457031 332.29488281 -59.56914063 331.58976562 -58.83203125 330.86328125 C-42.02369324 313.24975339 -34.48471486 289.40685401 -30 266 C-29.86867676 265.32710938 -29.73735352 264.65421875 -29.60205078 263.9609375 C-23.70424828 231.80012946 -26.65435233 193.69602462 -45.27392578 166.11279297 C-48.70898336 161.34983412 -52.4454337 156.8399325 -56.234375 152.35546875 C-58.74340313 149.0082476 -59.29970926 146.07865207 -59 142 C-58.15601212 138.64863067 -57.13844505 135.41383081 -56.0078125 132.1484375 C-50.2479645 114.15449374 -52.8745786 90.63056072 -59 73 C-71.91238501 73.34143326 -84.58531526 78.22771947 -96 84 C-96.68433105 84.34160156 -97.36866211 84.68320313 -98.07373047 85.03515625 C-107.42161726 89.72400063 -116.48709573 94.52740216 -124.84082031 100.86401367 C-130.10735241 104.6627352 -135.05463286 105.58528846 -141.39453125 104.64477539 C-143.93436101 104.08868048 -146.43012576 103.43740702 -148.9375 102.75 C-150.81014573 102.27577345 -152.68386757 101.80577785 -154.55859375 101.33984375 C-155.94473877 100.99348877 -155.94473877 100.99348877 -157.35888672 100.64013672 C-196.47857669 91.15854797 -240.27807504 92.96138438 -279.10693359 102.76171875 C-292.83142491 106.18904357 -292.83142491 106.18904357 -298 104 C-300.98594912 102.18854875 -303.86113832 100.29055166 -306.72143555 98.28955078 C-319.79152443 89.15059306 -333.82504034 81.89565607 -349 77 C-349.64259766 76.79262207 -350.28519531 76.58524414 -350.94726562 76.37158203 C-357.0727749 74.42465509 -362.52782671 72.74733257 -369 73 C-369.64939736 75.37407592 -370.29460053 77.7491639 -370.9375 80.125 C-371.21110352 81.12273437 -371.21110352 81.12273437 -371.49023438 82.140625 C-376.02726989 98.96890217 -376.2764299 119.06656265 -370.97265625 135.73828125 C-369.44564621 140.85897759 -368.27753991 145.30378936 -370.4375 150.375 C-372.34444286 153.2845623 -374.549388 155.9339163 -376.75 158.625 C-393.99530909 179.87711882 -400.22510638 204.17033479 -400.25 231.125 C-400.25100708 231.87988708 -400.25201416 232.63477417 -400.25305176 233.41253662 C-400.21914591 271.08492293 -391.20626689 308.18937777 -364.5 335.875 C-359.68278017 340.5431638 -354.66394882 344.42276917 -349 348 C-348.22269531 348.51046875 -347.44539062 349.0209375 -346.64453125 349.546875 C-326.34021674 362.39854552 -301.5957745 367.85559852 -278.1953125 371.8359375 C-277.10609497 372.02410034 -277.10609497 372.02410034 -275.99487305 372.21606445 C-274.09168575 372.53653707 -272.18462223 372.83375643 -270.27734375 373.12890625 C-265.95982594 374.27647058 -262.22746958 375.94005971 -259.87109375 379.89453125 C-258.91100203 384.14142346 -258.76081995 387.18324773 -260.81640625 391.23046875 C-262.1798516 393.26888704 -263.71886653 395.0041617 -265.375 396.8125 C-276.73914638 409.32502328 -279.15122481 426.90825969 -279.1418457 443.20458984 C-279.14532013 444.1943129 -279.14879456 445.18403595 -279.15237427 446.20375061 C-279.15969341 448.34095074 -279.16505912 450.47815827 -279.16866493 452.61536789 C-279.17587394 456.00451455 -279.19157245 459.39352005 -279.21000671 462.78262329 C-279.26227554 472.41463316 -279.31044793 482.04656218 -279.32592773 491.67871094 C-279.33603406 497.58197183 -279.36541976 503.48487126 -279.40724754 509.38798904 C-279.41951771 511.629312 -279.42468613 513.87068605 -279.42244911 516.11204147 C-279.4200842 519.25395809 -279.4423516 522.39484427 -279.4699707 525.53662109 C-279.46336929 526.45122604 -279.45676788 527.36583099 -279.44996643 528.30815125 C-279.5666483 536.43945417 -281.6916427 543.63878432 -287.0625 549.875 C-292.52382653 554.81119898 -299.51779197 557.12806587 -306.8125 557.5 C-343.67283908 555.49982656 -386.37525946 525.55275316 -414 503 C-414.58281738 502.5261084 -415.16563477 502.0522168 -415.76611328 501.56396484 C-432.50456692 487.87147873 -448.61701412 473.01843197 -462 456 C-462.94187457 454.84590984 -463.88601464 453.69366608 -464.83203125 452.54296875 C-477.05523958 437.61230095 -487.36682068 421.70572675 -497 405 C-497.39928711 404.31421875 -497.79857422 403.6284375 -498.20996094 402.921875 C-522.68563132 360.46624554 -536.97134557 308.10122283 -537.203125 259.15625 C-537.21018463 258.15717117 -537.21724426 257.15809235 -537.22451782 256.1287384 C-537.4534054 214.20429847 -537.4534054 214.20429847 -534 194 C-533.80664062 192.83162598 -533.61328125 191.66325195 -533.4140625 190.45947266 C-524.49525435 138.0133022 -503.13903147 86.80905407 -470 45 C-468.90751953 43.59041016 -468.90751953 43.59041016 -467.79296875 42.15234375 C-463.77539603 37.02538211 -459.52122043 32.15616264 -455.12890625 27.34765625 C-453.33317723 25.36741196 -451.59932394 23.3543465 -449.875 21.3125 C-441.59316128 11.83653569 -432.5320789 2.86605767 -422.640625 -4.9140625 C-419.87709213 -7.09708995 -417.22834902 -9.38652976 -414.5625 -11.6875 C-337.12056941 -75.94149619 -226.52872906 -97.27616007 0 0 Z " fill="#CFCECD" transform="translate(614,155)"/>
<path d="M0 0 C0.52577637 0.46792969 1.05155273 0.93585938 1.59326172 1.41796875 C11.60936586 10.37693945 21.40208323 19.65221368 30 30 C30.69198486 30.82927002 30.69198486 30.82927002 31.39794922 31.67529297 C39.01621674 40.83193299 46.34108964 50.11969239 53 60 C53.45165527 60.66741211 53.90331055 61.33482422 54.36865234 62.02246094 C102.94156452 134.52381837 119.81259782 224.5152109 103.71484375 309.99609375 C98.64246412 335.23489346 90.49585085 359.5270616 80 383 C79.65614258 383.78262207 79.31228516 384.56524414 78.95800781 385.37158203 C70.01983525 405.64478039 58.23356837 424.27430291 45 442 C44.61054199 442.52239258 44.22108398 443.04478516 43.81982422 443.58300781 C38.91033361 450.14328784 33.86933445 456.46559361 28.30078125 462.48828125 C26.39996897 464.56336155 24.55384716 466.66762549 22.71484375 468.796875 C19.04496935 473.00076349 15.19755968 476.9947468 11.25 480.9375 C10.5489917 481.63770264 9.8479834 482.33790527 9.12573242 483.05932617 C4.49688871 487.63404377 -0.21594291 491.87887004 -5.34375 495.890625 C-7.17887598 497.34793093 -8.96895174 498.86314667 -10.71875 500.421875 C-21.2929647 509.82736071 -33.13068369 517.34050107 -45 525 C-45.69222656 525.45068848 -46.38445312 525.90137695 -47.09765625 526.36572266 C-64.2005011 537.46847605 -83.23088061 545.86634707 -102.3125 552.9375 C-103.10696533 553.23213135 -103.90143066 553.5267627 -104.7199707 553.83032227 C-114.96290872 557.54229862 -124.62779744 558.79383786 -134.84375 554.203125 C-137.81008325 552.54799703 -139.83786056 550.60728579 -142 548 C-142.721875 547.195625 -143.44375 546.39125 -144.1875 545.5625 C-148.3199736 539.72003733 -148.29022493 533.91024792 -148.27124023 527.02587891 C-148.27908035 525.54155869 -148.27908035 525.54155869 -148.28707886 524.0272522 C-148.29730021 521.88294683 -148.303096 519.73861679 -148.30496025 517.59428787 C-148.30863665 514.18679628 -148.32540253 510.77959245 -148.34571838 507.37216187 C-148.40098031 497.68517447 -148.43166537 487.99814366 -148.45629883 478.31103516 C-148.47229296 472.37769908 -148.5026428 466.44456438 -148.54106331 460.51133347 C-148.55261841 458.26379939 -148.55864282 456.01622909 -148.55874443 453.76866531 C-148.56002679 432.93704847 -149.33068417 410.62213677 -164.45703125 394.44140625 C-164.90433594 394.00699219 -165.35164063 393.57257813 -165.8125 393.125 C-168.68446853 390.33508772 -168.95655357 388.58652686 -169.25 384.625 C-168.97926023 380.69927335 -168.44616236 379.03661534 -166 376 C-162.31248898 373.4020911 -159.27212685 372.4781939 -154.828125 371.859375 C-153.61866211 371.67979248 -152.40919922 371.50020996 -151.16308594 371.31518555 C-149.2261084 371.0354187 -149.2261084 371.0354187 -147.25 370.75 C-115.42063695 365.84399578 -84.1259221 356.4000071 -61 333 C-60.28457031 332.29488281 -59.56914063 331.58976562 -58.83203125 330.86328125 C-42.02369324 313.24975339 -34.48471486 289.40685401 -30 266 C-29.86867676 265.32710938 -29.73735352 264.65421875 -29.60205078 263.9609375 C-23.70424828 231.80012946 -26.65435233 193.69602462 -45.27392578 166.11279297 C-48.70898336 161.34983412 -52.4454337 156.8399325 -56.234375 152.35546875 C-58.74340313 149.0082476 -59.29970926 146.07865207 -59 142 C-58.15601212 138.64863067 -57.13844505 135.41383081 -56.0078125 132.1484375 C-50.2479645 114.15449374 -52.8745786 90.63056072 -59 73 C-71.91238501 73.34143326 -84.58531526 78.22771947 -96 84 C-96.68433105 84.34160156 -97.36866211 84.68320313 -98.07373047 85.03515625 C-107.42161726 89.72400063 -116.48709573 94.52740216 -124.84082031 100.86401367 C-130.10735241 104.6627352 -135.05463286 105.58528846 -141.39453125 104.64477539 C-143.93436101 104.08868048 -146.43012576 103.43740702 -148.9375 102.75 C-150.81014573 102.27577345 -152.68386757 101.80577785 -154.55859375 101.33984375 C-155.94473877 100.99348877 -155.94473877 100.99348877 -157.35888672 100.64013672 C-196.47857669 91.15854797 -240.27807504 92.96138438 -279.10693359 102.76171875 C-292.83142491 106.18904357 -292.83142491 106.18904357 -298 104 C-300.98594912 102.18854875 -303.86113832 100.29055166 -306.72143555 98.28955078 C-319.79152443 89.15059306 -333.82504034 81.89565607 -349 77 C-349.64259766 76.79262207 -350.28519531 76.58524414 -350.94726562 76.37158203 C-357.0727749 74.42465509 -362.52782671 72.74733257 -369 73 C-369.64939736 75.37407592 -370.29460053 77.7491639 -370.9375 80.125 C-371.21110352 81.12273437 -371.21110352 81.12273437 -371.49023438 82.140625 C-376.02726989 98.96890217 -376.2764299 119.06656265 -370.97265625 135.73828125 C-369.44564621 140.85897759 -368.27753991 145.30378936 -370.4375 150.375 C-372.34444286 153.2845623 -374.549388 155.9339163 -376.75 158.625 C-393.99530909 179.87711882 -400.22510638 204.17033479 -400.25 231.125 C-400.25100708 231.87988708 -400.25201416 232.63477417 -400.25305176 233.41253662 C-400.21914591 271.08492293 -391.20626689 308.18937777 -364.5 335.875 C-359.68278017 340.5431638 -354.66394882 344.42276917 -349 348 C-348.22269531 348.51046875 -347.44539062 349.0209375 -346.64453125 349.546875 C-326.34021674 362.39854552 -301.5957745 367.85559852 -278.1953125 371.8359375 C-277.10609497 372.02410034 -277.10609497 372.02410034 -275.99487305 372.21606445 C-274.09168575 372.53653707 -272.18462223 372.83375643 -270.27734375 373.12890625 C-265.95982594 374.27647058 -262.22746958 375.94005971 -259.87109375 379.89453125 C-258.91100203 384.14142346 -258.76081995 387.18324773 -260.81640625 391.23046875 C-262.1798516 393.26888704 -263.71886653 395.0041617 -265.375 396.8125 C-276.73914638 409.32502328 -279.15122481 426.90825969 -279.1418457 443.20458984 C-279.14532013 444.1943129 -279.14879456 445.18403595 -279.15237427 446.20375061 C-279.15969341 448.34095074 -279.16505912 450.47815827 -279.16866493 452.61536789 C-279.17587394 456.00451455 -279.19157245 459.39352005 -279.21000671 462.78262329 C-279.26227554 472.41463316 -279.31044793 482.04656218 -279.32592773 491.67871094 C-279.33603406 497.58197183 -279.36541976 503.48487126 -279.40724754 509.38798904 C-279.41951771 511.629312 -279.42468613 513.87068605 -279.42244911 516.11204147 C-279.4200842 519.25395809 -279.4423516 522.39484427 -279.4699707 525.53662109 C-279.46336929 526.45122604 -279.45676788 527.36583099 -279.44996643 528.30815125 C-279.5666483 536.43945417 -281.6916427 543.63878432 -287.0625 549.875 C-292.52382653 554.81119898 -299.51779197 557.12806587 -306.8125 557.5 C-343.67283908 555.49982656 -386.37525946 525.55275316 -414 503 C-414.58281738 502.5261084 -415.16563477 502.0522168 -415.76611328 501.56396484 C-432.50456692 487.87147873 -448.61701412 473.01843197 -462 456 C-462.94187457 454.84590984 -463.88601464 453.69366608 -464.83203125 452.54296875 C-477.05523958 437.61230095 -487.36682068 421.70572675 -497 405 C-497.39928711 404.31421875 -497.79857422 403.6284375 -498.20996094 402.921875 C-522.68563132 360.46624554 -536.97134557 308.10122283 -537.203125 259.15625 C-537.21018463 258.15717117 -537.21724426 257.15809235 -537.22451782 256.1287384 C-537.4534054 214.20429847 -537.4534054 214.20429847 -534 194 C-533.80664062 192.83162598 -533.61328125 191.66325195 -533.4140625 190.45947266 C-524.49525435 138.0133022 -503.13903147 86.80905407 -470 45 C-468.90751953 43.59041016 -468.90751953 43.59041016 -467.79296875 42.15234375 C-463.77539603 37.02538211 -459.52122043 32.15616264 -455.12890625 27.34765625 C-453.33317723 25.36741196 -451.59932394 23.3543465 -449.875 21.3125 C-441.59316128 11.83653569 -432.5320789 2.86605767 -422.640625 -4.9140625 C-419.87709213 -7.09708995 -417.22834902 -9.38652976 -414.5625 -11.6875 C-337.12056941 -75.94149619 -226.52872906 -97.27616007 0 0 Z M-252 -57 C-253.46474269 -56.77927625 -254.92959055 -56.55924952 -256.39453125 -56.33984375 C-260.94459839 -55.63768198 -265.47306091 -54.83738659 -270 -54 C-270.74830078 -53.86368164 -271.49660156 -53.72736328 -272.26757812 -53.58691406 C-320.06437874 -44.71972697 -367.54257689 -22.65942212 -404.13671875 9.50390625 C-406.82167097 11.8445399 -409.57551325 14.04893941 -412.375 16.25 C-422.44345162 24.44353468 -431.71633296 34.01260002 -440 44 C-440.74121094 44.86367187 -441.48242188 45.72734375 -442.24609375 46.6171875 C-464.14419441 72.37563975 -481.67121547 101.50932915 -494 133 C-494.35433105 133.90492188 -494.70866211 134.80984375 -495.07373047 135.7421875 C-499.9257658 148.28850972 -504.0161901 160.88161062 -507 174 C-507.21785156 174.95245605 -507.43570313 175.90491211 -507.66015625 176.88623047 C-508.35929818 180.00290534 -509.02853668 183.12459643 -509.6875 186.25 C-509.89012451 187.17594971 -510.09274902 188.10189941 -510.30151367 189.0559082 C-513.96763641 207.20604527 -514.35321852 225.86225324 -514.31567383 244.31616211 C-514.31249792 247.56462766 -514.33616601 250.81219157 -514.36132812 254.06054688 C-514.40288792 267.95069449 -513.25672302 281.30227567 -511 295 C-510.69665863 296.90810288 -510.39343685 298.81622477 -510.09033203 300.72436523 C-502.09154856 350.25725586 -479.72401186 397.51891163 -448.29785156 436.39355469 C-447.04301736 437.94675429 -445.79865593 439.50839687 -444.5546875 441.0703125 C-440.79612775 445.74621564 -436.98018042 450.17726921 -432.66015625 454.33984375 C-430.93321125 456.06678875 -429.38126379 457.87882391 -427.8125 459.75 C-398.90057901 493.17940864 -352.9642187 521.30738122 -311 534 C-307.29106092 534.25099867 -307.29106092 534.25099867 -304 534 C-302.70099687 532.92566942 -302.70099687 532.92566942 -302.87974548 530.37413025 C-302.88196609 529.20386795 -302.88418671 528.03360565 -302.88647461 526.82788086 C-302.88625557 525.86205833 -302.88625557 525.86205833 -302.8860321 524.87672424 C-302.88673115 522.73939697 -302.89452309 520.60215587 -302.90234375 518.46484375 C-302.90420796 516.98653715 -302.90563185 515.50822993 -302.90663147 514.02992249 C-302.91045641 510.13201198 -302.92028648 506.23413851 -302.93133545 502.33624268 C-302.94155008 498.36153667 -302.9461292 494.38682471 -302.95117188 490.41210938 C-302.96190878 482.608056 -302.97898491 474.80403318 -303 467 C-304.01199463 467.02618408 -305.02398926 467.05236816 -306.06665039 467.0793457 C-309.89649483 467.1712762 -313.72624673 467.22775549 -317.55688477 467.2746582 C-319.20060737 467.29948301 -320.84422349 467.3333554 -322.48754883 467.37719727 C-341.85198591 467.88009282 -357.25726113 462.9163795 -371.63671875 449.38671875 C-378.71829482 442.23491217 -383.78246532 434.19716143 -388.92895508 425.61791992 C-392.52053896 419.67307893 -396.27917012 414.12219599 -401 409 C-401.63679688 408.3090625 -402.27359375 407.618125 -402.9296875 406.90625 C-411.04114558 398.9478383 -429.34280091 388 -441 388 C-443.11506452 383.76987095 -443.94966119 379.65428008 -443 375 C-440.18334583 371.51624353 -437.98881488 369.22439488 -433.47265625 368.71484375 C-428.71699451 369.10535366 -424.81798666 370.74067787 -420.4375 372.5625 C-419.55143066 372.92674072 -418.66536133 373.29098145 -417.75244141 373.66625977 C-396.26223304 382.64948721 -382.04422793 395.73345258 -369.875 415.625 C-361.85322012 428.67791562 -353.68890963 440.97646044 -338 445 C-331.9648683 446.120479 -326.05111682 446.14953625 -319.9375 446.125 C-318.97005859 446.12886719 -318.00261719 446.13273437 -317.00585938 446.13671875 C-312.22519065 446.13017437 -307.69958765 445.99856331 -303 445 C-302.96036133 444.45287354 -302.92072266 443.90574707 -302.87988281 443.34204102 C-301.51829191 425.33105194 -298.78816225 409.38110126 -291 393 C-291.68288086 392.8548999 -292.36576172 392.7097998 -293.06933594 392.56030273 C-332.94226158 383.98795767 -373.2998819 369.10138344 -396.625 333.3125 C-408.9833662 313.6087615 -416.60881353 292.05073021 -420.625 269.1875 C-420.8101416 268.15761963 -420.8101416 268.15761963 -420.99902344 267.10693359 C-425.24959355 241.46810697 -424.91349196 214.0581374 -418 189 C-417.68933594 187.81921875 -417.37867188 186.6384375 -417.05859375 185.421875 C-412.91244844 171.51462526 -405.12059296 157.5185178 -396 146.3125 C-393.44891957 142.08727304 -393.95953117 139.56905694 -395 135 C-396.7242754 125.85811741 -397.2834524 117.04223234 -397.1875 107.75 C-397.1865332 105.94789063 -397.1865332 105.94789063 -397.18554688 104.109375 C-397.10438244 87.66004858 -394.4299675 69.90020582 -387 55 C-381.146121 49.48829086 -375.43186107 49.5037188 -367.71484375 49.66015625 C-343.01353596 50.91052701 -315.42238886 64.13432938 -295.75 78.375 C-293.15074383 80.10138439 -291.69396231 81.03127756 -288.54077148 80.88916016 C-287.68040283 80.69112793 -286.82003418 80.4930957 -285.93359375 80.2890625 C-284.48654053 79.9789624 -284.48654053 79.9789624 -283.01025391 79.66259766 C-281.52017822 79.33461182 -281.52017822 79.33461182 -280 79 C-278.0814795 78.65504995 -276.16084101 78.32167596 -274.23828125 78 C-273.26310547 77.835 -272.28792969 77.67 -271.28320312 77.5 C-270.30287109 77.335 -269.32253906 77.17 -268.3125 77 C-267.35150391 76.835 -266.39050781 76.67 -265.40039062 76.5 C-262.27050899 75.9739004 -259.13708393 75.48127039 -256 75 C-254.8538623 74.81759766 -253.70772461 74.63519531 -252.52685547 74.44726562 C-240.21351768 72.67795188 -227.92487904 72.52150514 -215.5 72.5 C-213.80437424 72.49398773 -213.80437424 72.49398773 -212.07449341 72.487854 C-193.03992057 72.47144272 -174.7197459 74.15854762 -155.99609375 77.4921875 C-154.92967148 77.68198936 -154.92967148 77.68198936 -153.84170532 77.87562561 C-150.79861491 78.43244478 -147.80226939 79.05101214 -144.80615234 79.82397461 C-139.87469585 81.04124367 -136.91296945 81.43156881 -132.359375 78.95703125 C-130.80459365 77.93623041 -129.26865048 76.88631568 -127.75 75.8125 C-126.02266187 74.68517411 -124.28932802 73.56699333 -122.55078125 72.45703125 C-121.65182129 71.88162598 -120.75286133 71.3062207 -119.82666016 70.71337891 C-115.0275288 67.80438738 -110.00797972 65.394945 -104.9375 63 C-103.54772949 62.3344812 -103.54772949 62.3344812 -102.12988281 61.65551758 C-87.81357199 54.93433513 -72.7616385 49.69526391 -56.8125 49.5625 C-55.77101807 49.54751465 -55.77101807 49.54751465 -54.70849609 49.53222656 C-50.08380187 49.61120402 -46.81123349 50.36394176 -43 53 C-39.62759297 57.82623621 -37.92397429 62.73493365 -36.375 68.375 C-36.16262695 69.12740967 -35.95025391 69.87981934 -35.73144531 70.6550293 C-35.14159943 72.76681473 -34.56715237 74.8820236 -34 77 C-33.76023437 77.88558594 -33.52046875 78.77117187 -33.2734375 79.68359375 C-28.92344924 97.37571017 -29.51508842 117.92802215 -33.34375 135.63671875 C-34.16407729 139.80765317 -34.16407729 139.80765317 -34 144 C-32.57468293 146.20904941 -32.57468293 146.20904941 -30.5625 148.3125 C-11.3524437 171.32383953 -4.55414093 202.132709 -4.6875 231.4375 C-4.68865814 232.22691986 -4.68981628 233.01633972 -4.69100952 233.8296814 C-4.72618968 245.98773028 -5.38352875 257.83005044 -7.59863281 269.81152344 C-7.9666436 271.81812241 -8.27911274 273.83470109 -8.5859375 275.8515625 C-14.14162635 308.96924017 -31.69578768 341.9464815 -59 362 C-79.82144869 376.70647778 -104.25421439 386.50697581 -129.37646484 390.72167969 C-131.26939869 391.05658658 -133.13953399 391.51623622 -135 392 C-136.35652136 396.06956409 -134.8117542 398.45071046 -133.1875 402.1875 C-131.00077023 407.44176032 -129.10257622 412.39523756 -128 418 C-127.83585098 418.71452835 -127.67170197 419.4290567 -127.50257874 420.16523743 C-125.2631722 431.21292 -125.66396625 442.44561498 -125.62109375 453.66796875 C-125.60489939 455.9577148 -125.58771739 458.24745406 -125.56959534 460.53718567 C-125.52415575 466.52894971 -125.48920835 472.520723 -125.45739746 478.51257324 C-125.40526546 488.14100286 -125.34054361 497.76933384 -125.26918221 507.39763832 C-125.24630485 510.76192441 -125.23007234 514.12619763 -125.21446228 517.49052429 C-125.20106582 519.5342931 -125.18745192 521.57806051 -125.17358398 523.62182617 C-125.16966393 525.03284355 -125.16966393 525.03284355 -125.16566467 526.47236633 C-125.54798772 530.56032667 -125.54798772 530.56032667 -124 534 C-117.03451229 534.84897911 -111.46614689 532.14988153 -105.125 529.5 C-104.01237793 529.04294678 -102.89975586 528.58589355 -101.75341797 528.11499023 C-72.11597467 515.83209261 -45.50521982 499.76494942 -21 479 C-20.26007813 478.37996094 -19.52015625 477.75992188 -18.7578125 477.12109375 C-16.80414841 475.44832128 -14.89857708 473.73525862 -13 472 C-12.46020508 471.50918945 -11.92041016 471.01837891 -11.36425781 470.51269531 C-3.50210375 463.3453555 4.11281038 456.12893198 11 448 C12.19496094 446.60201172 12.19496094 446.60201172 13.4140625 445.17578125 C35.81676908 418.6462603 53.08636242 389.42249799 66.09033203 357.24609375 C66.65994566 355.83964034 67.23550836 354.43556542 67.81982422 353.03515625 C79.96921902 323.88277203 86.07170794 290.62176675 86.203125 259.11328125 C86.20882507 258.01316208 86.21452515 256.91304291 86.22039795 255.77958679 C86.22978176 253.46105896 86.23635532 251.14251819 86.24023438 248.82397461 C86.24985088 245.36612046 86.28090242 241.90888493 86.3125 238.45117188 C86.40857016 218.45243297 84.82668002 198.68272807 80.1875 179.1875 C79.92743164 178.06553223 79.66736328 176.94356445 79.39941406 175.78759766 C67.47437261 125.34711774 43.3680661 77.72378542 7.71484375 39.8984375 C5.52129105 37.55654383 3.39798853 35.1870836 1.3125 32.75 C-4.92106643 25.58515377 -11.67423723 19.27180133 -19.09765625 13.35546875 C-21.01695354 11.79781563 -22.901372 10.19607363 -24.74609375 8.55078125 C-40.32952191 -5.29425652 -58.47625862 -16.51960968 -77 -26 C-78.06154297 -26.54914063 -78.06154297 -26.54914063 -79.14453125 -27.109375 C-100.93141426 -38.2579782 -124.14638135 -46.61773672 -148 -52 C-148.80566406 -52.19142578 -149.61132812 -52.38285156 -150.44140625 -52.58007812 C-182.64053469 -60.19222793 -219.21849838 -62.33652352 -252 -57 Z " fill="#010101" transform="translate(614,155)"/>
</svg>
